<svg xmlns="http://www.w3.org/2000/svg" viewBox="0 0 1177.24 226.48"><defs><style>.cls-1{fill:#94a788;}.cls-2{fill:#3d5570;}.cls-3{fill:#40513a;}</style></defs><g id="Layer_2" data-name="Layer 2"><g id="Layer_5" data-name="Layer 5"><path class="cls-1" d="M125,7.93q6.31,21.63,12,43.44c3.9,15,9.85,28.81,22.95,37.92C166.7,94,174.41,97.16,181.7,101a14.25,14.25,0,0,0,3,.67c-2.06-2.85-3.69-5-5.28-7.27-3.47-4.82-7.53-9.31-10.23-14.52-6.39-12.33-12.5-24.88-10.83-39.48,1-8.47,7.51-15.17,14.55-17.36,4.43-1.39,9.32,1.63,9.62,6.29a48.14,48.14,0,0,1-.87,14.5c-3.73,15.13-2.79,29.67,3.69,43.88,2.18,4.8,4.11,9.71,6,14.63.9,2.31,2.56,2.69,4.81,2.78,9.23.34,18.48.69,27.68,1.5,2.49.21,4.85,2.08,7.25,3.18-.1.57-.19,1.13-.28,1.7-1.38.33-2.76,1-4.1.94-9.76-.39-19.5-1-29.26-1.38-3.07-.13-6.16.3-9.23.18-12.3-.52-23.51,3.57-34.35,8.5a266.43,266.43,0,0,0-27.17,14.32,138.27,138.27,0,0,0-29.42,24c-5.08,5.41-11,9.15-18.75,7.88-9-1.46-13-10.94-8.83-20,3.17-6.84,8.66-11.62,14.6-15.94,19.37-14.07,41.46-20.24,64.93-22.45.33,0,.63-.34,1.21-.69-5.2-1.17-10.13-2.25-15-3.4-7.05-1.62-14.07-4.54-21.13-4.58s-14.5,2.21-21.51,4.34c-11.94,3.63-19.87,12.87-28.12,21.53A30.6,30.6,0,0,1,45.26,134c-6,.67-10.22-4.61-8.84-10.53,1.16-5,4.67-8.33,8.59-11A105.18,105.18,0,0,1,85.46,95.84c6.46-1.19,13.19-1,20-2.24-12.58-3.28-25.11-6.75-37.75-9.76s-25.32-6-36.95-12a16,16,0,0,1-6.52-6.23c-2.28-4.29-.11-7.72,4.77-8.69a27.65,27.65,0,0,1,17.41,2.53c10.07,4.83,19.67,10.64,29.69,15.6,10.25,5.08,20.78,9.62,31.19,14.39a7.33,7.33,0,0,0,1.71.29c-6.63-5.88-13.49-11.23-19.42-17.45A142.08,142.08,0,0,1,73.79,52.52c-3.5-5.3-5.62-11.66-4.56-18.26.45-2.91,1.55-6.33,3.56-8.24,5.21-5,11.56-2.38,13.89,4.88,2.89,9,6.1,18,9.08,27,2.74,8.22,8.33,14.53,13.7,21,2.54,3.06,5.65,5.7,7.9,8.94,5,7.23,12.49,10.16,20.54,11.68,12.08,2.27,24.26,4,36.4,6a16.55,16.55,0,0,0,3.07,0c.18,0,.35-.31.09-.08-7.77-3.76-15.93-7.24-23.62-11.54A104.18,104.18,0,0,1,123.69,67.9c-4.12-5.1-8.8-10-11.78-15.71-6.69-12.86-13.26-26-9.07-41.39A14.78,14.78,0,0,1,111.52,1C117.51-1.64,123,1,125,7.93Z"/><path class="cls-2" d="M23.38,107.88c-8,5.51-15.63,1.21-20.5-6C-2.4,94-.14,84.58,7.39,80.07c7.94-4.74,17-2.37,22,5C33.89,92,30.86,104.84,23.38,107.88ZM8.16,102.05,9.94,102c.49-2.34,1.38-4.7,1.29-7,0-1.25-1.77-2.43-2.74-3.64-1.44,1.34-4.2,1.89-2.87,4.87C6.49,98.12,7.32,100.09,8.16,102.05Z"/><path class="cls-2" d="M152.51,140.24c7.92-4.15,16.08-2.14,20.18,4.25s.42,19-6.61,23.14c-7.22,4.25-14.62,1.49-20.43-7.63C142.31,154.76,146,144.11,152.51,140.24Zm-2.65,6c-.4,3.46-.84,6.39-1,9.34a2.68,2.68,0,0,0,1.28,2.19,3.44,3.44,0,0,0,2.78-.63C156.64,154,155.65,148.78,149.86,146.24Z"/><path class="cls-1" d="M1103.53,161.46c-10.64-9.51-18.4-17-19.82-18.34a176.13,176.13,0,0,0-31.07-23.93c-9.7-5.9-19.66-10.62-30.81-8.67a26.75,26.75,0,0,0-3,.67c1.69.77,4,1.91,6.77,3.47,4.55,2.61,11.64,6.67,17.18,13.06,7.43,8.57,12.56,21.86,8.5,28a10.57,10.57,0,0,1-3.76,3.34,10.79,10.79,0,0,1-8.6,0c-3.84-1.66-4.91-5.52-8.27-15-6.16-17.3-8.57-21.17-11-24.08a35.41,35.41,0,0,0-9-7.64c-1.4.23-3.33.6-5.61,1.16a86.84,86.84,0,0,0-9.81,3c-7.3,2.65-14.1,5.55-18,7.23l-3.76.13c-.16-.56-.31-1.1-.48-1.65,1.1-.9,2-2.1,3.29-2.62,11.93-5.1,20.43-9.63,27-11.41A97.66,97.66,0,0,0,1030.35,96a46.89,46.89,0,0,0,14.08-11.47,43.17,43.17,0,0,0,3.89-5.52c7-11.93,2.94-22,9-38.93,1-2.69,2.05-5.14,4.51-6.8,4.64-3.13,12.59-2.38,16.14,1.78,4.83,5.64.3,16.1-2.72,23.07a60.44,60.44,0,0,1-7.23,12.16,114.46,114.46,0,0,1-20.59,21.45c5.2-1.19,10.11-2.35,15-3.44,9.85-2.17,14-2.67,21-5,8.14-2.69,11.4-4.83,13.84-7a30.27,30.27,0,0,0,6-7.47c5.69-9.41,3.06-14.16,8.85-24.41a21.48,21.48,0,0,1,7.37-8.23c2-1.24,4.83-3,8.23-2.32,3.82.73,6.45,4.08,7.47,7,1.8,5.1-1,10.11-3,13.61-2.9,5-7,9.48-21.48,19.16-4.2,2.82-10,6.55-17.11,10.69a111.91,111.91,0,0,0,12.15-2.15c14.74-3.47,20.92-8.17,36.9-11.54,6.89-1.46,11.11-1.72,15.52,0,1.71.65,8.86,3.38,9.89,9.72.86,5.31-3.2,9.43-3.56,9.79-3.3,3.25-7.55,3.54-10.47,3.7-7.71.41-11-2.72-20.58-5.3a78,78,0,0,0-15.66-2.34A96.84,96.84,0,0,0,1086.09,89a43.41,43.41,0,0,1,18.4,6.33c2.64,1.66,14.88,9.37,13.73,17.59a8.35,8.35,0,0,1-3,5.32c-4,2.86-9.94.22-10.33,0-8.23-3.77-6.35-13.49-14.64-21a26.08,26.08,0,0,0-13.66-6.09c-5.86.43-10.81,1.11-14.57,1.73a154.15,154.15,0,0,0-26.87,6.93c-4.55,1.7-7.28,3-8.53,3.43a15.89,15.89,0,0,0-2.77,1.31c-.17.07-.19.43-.06.11a139.61,139.61,0,0,1,33.2,3.56c18.68,4.29,31.54,11.28,39.69,15.78a148.67,148.67,0,0,1,26.95,20.43c5.47,5.17,8.32,8.65,8.34,13.25,0,6.41-5.46,13.14-11.46,14C1116.17,172.33,1112.81,169.74,1103.53,161.46Z"/><path class="cls-2" d="M1164.37,144.2c7.67,1.21,11.71-4.55,12.72-11.46,1.09-7.51-3.8-13.52-10.8-14.17a12.69,12.69,0,0,0-14.11,11.24C1151.27,136.35,1157.91,144.59,1164.37,144.2Zm9-9.49-1.31.56c-1.16-1.52-2.62-2.92-3.37-4.63-.39-.91.45-2.37.73-3.58,1.5.47,3.68-.09,3.75,2.53C1173.19,131.3,1173.27,133,1173.34,134.71Z"/><path class="cls-2" d="M1008.26,52.24c-8.93-.31-15.42,5-16.36,12.56-1,7.71,7.83,17.3,16,18,8.35.72,13.82-5,15.12-15.71C1023.74,60.93,1015.8,52.93,1008.26,52.24Zm5,4.27c1.85,3,3.52,5.4,4.94,8A2.7,2.7,0,0,1,1018,67a3.43,3.43,0,0,1-2.78.63C1010.46,66.39,1009.13,61.3,1013.25,56.51Z"/><path class="cls-3" d="M485.07,226.12V205.51h12.64v2.05H487.26v6.75h8.63v2.12h-8.63v7.64h10.35v2.05Zm4.2-22.77-.76-1.38,5-2.95,1.32,2.32Z"/><path class="cls-3" d="M515.48,226.12V205.51h6.61a7.63,7.63,0,0,1,3.74.8,5.06,5.06,0,0,1,2.1,2.1,6.25,6.25,0,0,1,.68,2.92,6.39,6.39,0,0,1-.37,2.22,4.91,4.91,0,0,1-1.14,1.82,5,5,0,0,1-2,1.22,8.48,8.48,0,0,1-2.88.43h-4.4v9.1ZM517.86,215H522a5.81,5.81,0,0,0,2.45-.44,2.93,2.93,0,0,0,1.36-1.26,4.24,4.24,0,0,0,0-3.72,3.26,3.26,0,0,0-1.36-1.34,5,5,0,0,0-2.41-.51h-4.17Z"/><path class="cls-3" d="M566.74,225.87a6.89,6.89,0,0,1-2.56-1.9,9.21,9.21,0,0,1-1.74-3.28,15.73,15.73,0,0,1-.62-4.73,16.94,16.94,0,0,1,.46-4.21,10.59,10.59,0,0,1,1.25-3,7.28,7.28,0,0,1,1.82-1.95,7.42,7.42,0,0,1,2.15-1.06,8,8,0,0,1,2.25-.33,6.54,6.54,0,0,1,3.84,1.11,6.76,6.76,0,0,1,2.38,3l-2,.92-.3.14-.1-.23a.66.66,0,0,0,0-.48c-.07-.15-.19-.37-.37-.68a4.42,4.42,0,0,0-1.7-1.51,4.58,4.58,0,0,0-1.83-.38,4.83,4.83,0,0,0-2.34.58,5.2,5.2,0,0,0-1.78,1.69,8.36,8.36,0,0,0-1.13,2.69,15.75,15.75,0,0,0-.38,3.61,13,13,0,0,0,.45,3.54,9.72,9.72,0,0,0,1.22,2.74,6,6,0,0,0,1.82,1.79,4.26,4.26,0,0,0,2.24.63,4.41,4.41,0,0,0,1.6-.3,4.69,4.69,0,0,0,1.44-.88A5.59,5.59,0,0,0,574,222l1.72,1.13a7.21,7.21,0,0,1-2.38,2.51,6.39,6.39,0,0,1-3.41.86A8,8,0,0,1,566.74,225.87Z"/><path class="cls-3" d="M590.9,226.12V205.51h12.63v2.05H593.08v6.75h8.63v2.12h-8.63v7.64h10.35v2.05Z"/><path class="cls-3" d="M618.24,226.12V205.51h6.09a9.19,9.19,0,0,1,3.95.73,4.73,4.73,0,0,1,2.2,2,6.64,6.64,0,0,1,.69,3.11,5.68,5.68,0,0,1-.51,2.31,6,6,0,0,1-1.45,2,5.12,5.12,0,0,1-2.24,1.19l4.77,9.2h-2.58l-4.57-9.1h-4v9.1ZM620.59,215h4a4.45,4.45,0,0,0,3.21-1,3.49,3.49,0,0,0,1-2.6,4,4,0,0,0-.43-1.87,3.12,3.12,0,0,0-1.35-1.34,5.15,5.15,0,0,0-2.42-.49h-4Z"/><path class="cls-3" d="M670.27,226.12V205.51H682.9v2.05H672.45v6.75h8.64v2.12h-8.64v7.64H682.8v2.05Z"/><rect class="cls-3" x="545.28" y="205.51" width="2.53" height="20.6"/><rect class="cls-3" x="648.6" y="205.51" width="2.53" height="20.6"/><path class="cls-3" d="M239.24,155c9.23,0,9.77-6.78,9.77-16.82V74.61c0-10-.54-16.82-9.77-16.82V57h39.62v.82c-9.22,0-9.77,6.78-9.77,16.82V147.9c0,3.53,1.22,5.7,4.89,5.7h4.21c12.21,0,20.76-6.52,30.67-27h.81l-3.94,29.18H239.24Z"/><path class="cls-3" d="M306.82,95.24c6.51-2.44,14.79-8.95,14.79-15.74,0-4.75-4.75-5.43-9.36-6.24-6.25-1.09-9-5.43-9-9.64,0-4.75,3.66-9.09,9.91-9.09,7.05,0,14.79,5.56,14.79,17,0,14.66-11.67,22-20.9,24.57Z"/><path class="cls-3" d="M406.56,155v.82H366.39V155c8-.54,10.45-5.7,7.87-12.89l-6.51-18.45H340.34l-1.77,4.75c-5.7,15.87-4.75,24.83,4.62,26.59v.82H319.85V155c6.1-1.62,10.31-11.12,16.14-27.41l26.6-72.87h1.09l30.53,83.73C398.15,149.39,400.86,154.41,406.56,155Zm-39.89-34.6L354.18,85.06l-12.76,35.29Z"/><path class="cls-3" d="M460.71,84.66v.81c-4.48.82-8.14,7.06-13.57,21.17l-19.81,51.44h-1.09l-22.39-57.27c-3.8-9.37-5.84-14.52-10.45-15.34v-.81h32.7v.81c-6.1.54-6.24,5.29-3.8,11.67l12.9,34.2,9.63-25.51c5.29-13.84,1.9-19.41-4.07-20.36v-.81Z"/><path class="cls-3" d="M521.23,146.4c-2.17,4.21-7.73,11-16.82,11s-11-6.38-11.4-11.27c-4.75,6.52-12.76,11.27-20.63,11.27-9.5,0-16-5.84-16-14.66,0-10,7.47-17,23.48-21.44l12.35-3.39v-8.42c0-3.8,0-17.91-13.16-17.91-8.69,0-15.47,6.11-19.27,13.43l-.82-.4C462.47,93.34,472.79,83,488.26,83c14.38,0,22.52,9.09,22.52,23.88v32.17c0,5.56,0,9.77,4.21,9.77,2.85,0,4.61-2,5.43-3Zm-29-1.35V119.81l-5.56,2c-9.91,3.67-12.49,7.6-12.49,15.61,0,7.33,3.94,11.67,9,11.67C486.08,149.12,489.61,147.35,492.19,145.05Z"/><path class="cls-3" d="M596.68,155v.82H565.74V155c5.57,0,6-4.61,6-13.3V109.09c0-9.37-1.62-15.75-10.45-15.75a26.5,26.5,0,0,0-12.89,4.07v44.24c0,8.69.41,13.3,6,13.3v.82H523.4V155c5.57,0,6-4.61,6-13.3V102.84c0-8.68-2.3-11.13-6.92-12.75v-.82l25.38-6h.54V96.06c6.79-6.79,15.47-13,24.7-13,11.67,0,17.64,7.6,17.64,21.17v37.45C590.71,150.34,591.12,155,596.68,155Z"/><path class="cls-3" d="M649.2,143.69c-6.51,8.28-15.61,13.71-24,13.71-11,0-17.51-5.57-17.51-19.14V90.76h-7v-1.9l1.9-1c9.63-4.47,16.69-10.17,23.34-23.47h.81V84.66h21.44l-2.3,6.1H626.67V138c0,7.06,3.39,10.59,9.5,10.59,4.07,0,8.69-2.58,12.22-5.43Z"/><path class="cls-3" d="M676.2,106.64c0-30.4,20.76-51.3,48.18-51.3,14.52,0,24.83,3.13,31.35,6V83.71h-.82c-7.46-16-16.42-26.47-30.94-26.47-17.51,0-26.06,20.9-26.06,49.13,0,27.55,7.33,49.13,25.79,49.13,9.36,0,14.11-4.89,14.11-12.76V127.41c0-10-.54-15.75-8.41-16.29v-.81H762v.81c-4.07.54-4.34,6.24-4.34,16.29v20.22c-7.6,5.15-20.09,9.77-34.61,9.77C693.71,157.4,676.2,137.31,676.2,106.64Z"/><path class="cls-3" d="M767.12,120.48C767.12,98,781.24,83,801.59,83c20.63,0,34.2,14.11,34.2,36.91,0,22.53-14.11,37.46-34.47,37.46C780.69,157.4,767.12,143.28,767.12,120.48Zm48.59-.27c0-18.59-3.8-35.28-14.39-35.28s-14.11,15.88-14.11,35.28c0,18.6,3.8,35.29,14.38,35.29S815.71,139.62,815.71,120.21Z"/><path class="cls-3" d="M915.45,152v.81l-22.53,4.62h-.54l-2.71-13c-6.79,6.78-15.48,13-24.7,13-11.81,0-17.78-7.6-17.78-21.17V99.59c0-8.69-2.58-12-7.19-13.58V85.2l25.64-1.9h.55v48c0,9.36,1.76,15.74,10.45,15.74A26,26,0,0,0,889.53,143V99.59c0-8.69-2.58-12-7.19-13.58V85.2L908,83.3h.54v54.56C908.53,146.54,910.84,150.34,915.45,152Z"/><path class="cls-3" d="M967.83,143.69c-6.51,8.28-15.61,13.71-24,13.71-11,0-17.51-5.57-17.51-19.14V90.76h-7v-1.9l1.9-1c9.63-4.47,16.69-10.17,23.34-23.47h.81V84.66h21.45l-2.31,6.1H945.3V138c0,7.06,3.4,10.59,9.5,10.59,4.07,0,8.69-2.58,12.22-5.43Z"/><path class="cls-3" d="M856.39,74.37l-.4-.67L876.68,46h.8L898.31,73.7l-.41.67L877.08,60.93Z"/></g></g></svg>